<?xml version="1.0" standalone="no"?>
<!DOCTYPE svg PUBLIC "-//W3C//DTD SVG 20010904//EN"
 "http://www.w3.org/TR/2001/REC-SVG-20010904/DTD/svg10.dtd">
<svg version="1.0" xmlns="http://www.w3.org/2000/svg"
 width="512.000000pt" height="512.000000pt" viewBox="0 0 512.000000 512.000000"
 preserveAspectRatio="xMidYMid meet">
<metadata>
Created by potrace 1.14, written by Peter Selinger 2001-2017
</metadata>
<g transform="translate(0.000000,512.000000) scale(0.100000,-0.100000)"
fill="#000000" stroke="none">
<path d="M3460 5086 c28 -75 41 -275 25 -393 -24 -178 -122 -409 -240 -564
-159 -211 -414 -426 -695 -584 -124 -69 -366 -184 -540 -255 -510 -208 -840
-446 -1075 -775 -132 -185 -247 -454 -271 -635 -3 -25 -8 -48 -10 -51 -15 -26
-22 -285 -11 -419 29 -338 159 -720 375 -1095 55 -94 48 -103 82 125 84 565
275 1089 549 1505 132 200 331 415 516 556 186 141 376 241 618 325 120 41
138 43 69 5 -319 -176 -672 -541 -881 -911 -233 -411 -366 -819 -456 -1400 -5
-35 -23 -202 -29 -275 -3 -33 -8 -90 -12 -126 -7 -76 -9 -74 86 -85 30 -3 66
-8 80 -10 182 -25 763 -25 898 1 9 1 44 6 77 9 33 4 67 9 75 11 8 2 32 6 52 9
96 14 230 49 418 109 300 95 615 304 829 551 126 144 267 405 341 626 45 137
87 302 105 410 4 25 9 53 11 64 2 10 6 44 10 75 3 31 8 65 10 75 6 34 17 238
17 336 1 296 -46 656 -124 950 -11 41 -22 80 -23 85 -31 118 -122 389 -181
535 -159 396 -376 788 -661 1197 -32 47 -48 56 -34 19z"/>
<path d="M1196 4703 c-29 -8 -87 -47 -113 -74 -12 -14 -32 -46 -44 -73 -17
-40 -20 -61 -16 -110 3 -34 13 -75 21 -92 93 -184 365 -181 448 5 52 116 17
239 -89 313 -40 27 -56 32 -117 34 -39 2 -80 0 -90 -3z"/>
<path d="M2604 4545 c-34 -17 -60 -40 -84 -76 -32 -47 -35 -58 -35 -123 1 -77
14 -112 62 -162 104 -107 276 -87 358 43 53 85 35 213 -41 285 -67 63 -173 76
-260 33z"/>
<path d="M1981 3944 c-35 -45 -20 -105 31 -123 51 -18 95 11 103 67 9 71 -90
112 -134 56z"/>
<path d="M1295 3587 c-17 -14 -28 -36 -32 -63 -4 -35 -1 -46 24 -74 67 -75
191 -11 167 87 -17 68 -106 96 -159 50z"/>
<path d="M855 3498 c-73 -40 -97 -133 -52 -199 41 -61 113 -80 178 -48 128 64
82 260 -62 259 -24 0 -53 -6 -64 -12z"/>
</g>
</svg>
